<mxfile host="Electron" agent="Mozilla/5.0 (Windows NT 10.0; Win64; x64) AppleWebKit/537.36 (KHTML, like Gecko) draw.io/27.0.5 Chrome/134.0.6998.205 Electron/35.3.0 Safari/537.36" version="27.0.5">
  <diagram name="Page-1" id="_vaKRQ4mtTxLxGSPYC5h">
    <mxGraphModel dx="1940" dy="823" grid="1" gridSize="10" guides="1" tooltips="1" connect="1" arrows="1" fold="1" page="1" pageScale="1" pageWidth="850" pageHeight="1100" math="0" shadow="0">
      <root>
        <mxCell id="0" />
        <mxCell id="1" parent="0" />
        <mxCell id="WOj7lZCbLBOkg7lVIWbP-15" value="commands" style="shape=module;align=left;spacingLeft=20;align=center;verticalAlign=top;whiteSpace=wrap;html=1;" vertex="1" parent="1">
          <mxGeometry x="-370" y="80" width="550" height="120" as="geometry" />
        </mxCell>
        <mxCell id="WOj7lZCbLBOkg7lVIWbP-1" value="Robot" style="swimlane;fontStyle=1;align=center;verticalAlign=top;childLayout=stackLayout;horizontal=1;startSize=26;horizontalStack=0;resizeParent=1;resizeParentMax=0;resizeLast=0;collapsible=1;marginBottom=0;whiteSpace=wrap;html=1;" vertex="1" parent="1">
          <mxGeometry x="130" y="230" width="160" height="52" as="geometry" />
        </mxCell>
        <mxCell id="WOj7lZCbLBOkg7lVIWbP-20" value="Walk(direction)" style="text;strokeColor=none;fillColor=none;align=left;verticalAlign=top;spacingLeft=4;spacingRight=4;overflow=hidden;rotatable=0;points=[[0,0.5],[1,0.5]];portConstraint=eastwest;whiteSpace=wrap;html=1;" vertex="1" parent="WOj7lZCbLBOkg7lVIWbP-1">
          <mxGeometry y="26" width="160" height="26" as="geometry" />
        </mxCell>
        <mxCell id="WOj7lZCbLBOkg7lVIWbP-5" value="ICommand" style="swimlane;fontStyle=3;align=center;verticalAlign=top;childLayout=stackLayout;horizontal=1;startSize=26;horizontalStack=0;resizeParent=1;resizeParentMax=0;resizeLast=0;collapsible=1;marginBottom=0;whiteSpace=wrap;html=1;" vertex="1" parent="1">
          <mxGeometry y="120" width="160" height="52" as="geometry" />
        </mxCell>
        <mxCell id="WOj7lZCbLBOkg7lVIWbP-6" value="+Execute()" style="text;strokeColor=none;fillColor=none;align=left;verticalAlign=top;spacingLeft=4;spacingRight=4;overflow=hidden;rotatable=0;points=[[0,0.5],[1,0.5]];portConstraint=eastwest;whiteSpace=wrap;html=1;fontStyle=2" vertex="1" parent="WOj7lZCbLBOkg7lVIWbP-5">
          <mxGeometry y="26" width="160" height="26" as="geometry" />
        </mxCell>
        <mxCell id="WOj7lZCbLBOkg7lVIWbP-7" value="WalkCommand" style="swimlane;fontStyle=1;align=center;verticalAlign=top;childLayout=stackLayout;horizontal=1;startSize=26;horizontalStack=0;resizeParent=1;resizeParentMax=0;resizeLast=0;collapsible=1;marginBottom=0;whiteSpace=wrap;html=1;" vertex="1" parent="1">
          <mxGeometry y="310" width="160" height="104" as="geometry" />
        </mxCell>
        <mxCell id="WOj7lZCbLBOkg7lVIWbP-32" value="+Execute()" style="text;strokeColor=none;fillColor=none;align=left;verticalAlign=top;spacingLeft=4;spacingRight=4;overflow=hidden;rotatable=0;points=[[0,0.5],[1,0.5]];portConstraint=eastwest;whiteSpace=wrap;html=1;fontStyle=0" vertex="1" parent="WOj7lZCbLBOkg7lVIWbP-7">
          <mxGeometry y="26" width="160" height="26" as="geometry" />
        </mxCell>
        <mxCell id="WOj7lZCbLBOkg7lVIWbP-8" value="-m_robot: Robot&amp;amp;" style="text;strokeColor=none;fillColor=none;align=left;verticalAlign=top;spacingLeft=4;spacingRight=4;overflow=hidden;rotatable=0;points=[[0,0.5],[1,0.5]];portConstraint=eastwest;whiteSpace=wrap;html=1;" vertex="1" parent="WOj7lZCbLBOkg7lVIWbP-7">
          <mxGeometry y="52" width="160" height="26" as="geometry" />
        </mxCell>
        <mxCell id="WOj7lZCbLBOkg7lVIWbP-19" value="-m_direction: WalkDirection" style="text;strokeColor=none;fillColor=none;align=left;verticalAlign=top;spacingLeft=4;spacingRight=4;overflow=hidden;rotatable=0;points=[[0,0.5],[1,0.5]];portConstraint=eastwest;whiteSpace=wrap;html=1;" vertex="1" parent="WOj7lZCbLBOkg7lVIWbP-7">
          <mxGeometry y="78" width="160" height="26" as="geometry" />
        </mxCell>
        <mxCell id="WOj7lZCbLBOkg7lVIWbP-9" value="" style="endArrow=block;dashed=1;endFill=0;endSize=12;html=1;rounded=0;" edge="1" parent="1" source="WOj7lZCbLBOkg7lVIWbP-7" target="WOj7lZCbLBOkg7lVIWbP-5">
          <mxGeometry width="160" relative="1" as="geometry">
            <mxPoint x="30" y="210" as="sourcePoint" />
            <mxPoint x="190" y="210" as="targetPoint" />
          </mxGeometry>
        </mxCell>
        <mxCell id="WOj7lZCbLBOkg7lVIWbP-10" value="" style="endArrow=diamondThin;endFill=0;endSize=24;html=1;rounded=0;" edge="1" parent="1" source="WOj7lZCbLBOkg7lVIWbP-1" target="WOj7lZCbLBOkg7lVIWbP-7">
          <mxGeometry width="160" relative="1" as="geometry">
            <mxPoint x="70" y="320" as="sourcePoint" />
            <mxPoint x="230" y="320" as="targetPoint" />
          </mxGeometry>
        </mxCell>
        <mxCell id="WOj7lZCbLBOkg7lVIWbP-13" value="Menu" style="swimlane;fontStyle=1;align=center;verticalAlign=top;childLayout=stackLayout;horizontal=1;startSize=26;horizontalStack=0;resizeParent=1;resizeParentMax=0;resizeLast=0;collapsible=1;marginBottom=0;whiteSpace=wrap;html=1;" vertex="1" parent="1">
          <mxGeometry x="-330" y="120" width="280" height="52" as="geometry" />
        </mxCell>
        <mxCell id="WOj7lZCbLBOkg7lVIWbP-23" value="AddItem(shortcut, desc, cmd:ICommand)" style="text;strokeColor=none;fillColor=none;align=left;verticalAlign=top;spacingLeft=4;spacingRight=4;overflow=hidden;rotatable=0;points=[[0,0.5],[1,0.5]];portConstraint=eastwest;whiteSpace=wrap;html=1;" vertex="1" parent="WOj7lZCbLBOkg7lVIWbP-13">
          <mxGeometry y="26" width="280" height="26" as="geometry" />
        </mxCell>
        <mxCell id="WOj7lZCbLBOkg7lVIWbP-16" value="" style="endArrow=diamondThin;endFill=1;endSize=24;html=1;rounded=0;" edge="1" parent="1" source="WOj7lZCbLBOkg7lVIWbP-5" target="WOj7lZCbLBOkg7lVIWbP-13">
          <mxGeometry width="160" relative="1" as="geometry">
            <mxPoint x="-230" y="320" as="sourcePoint" />
            <mxPoint x="-70" y="320" as="targetPoint" />
          </mxGeometry>
        </mxCell>
        <mxCell id="WOj7lZCbLBOkg7lVIWbP-17" value="Client" style="swimlane;fontStyle=1;align=center;verticalAlign=top;childLayout=stackLayout;horizontal=1;startSize=26;horizontalStack=0;resizeParent=1;resizeParentMax=0;resizeLast=0;collapsible=1;marginBottom=0;whiteSpace=wrap;html=1;fillColor=#dae8fc;strokeColor=#6c8ebf;" vertex="1" parent="1">
          <mxGeometry x="-270" y="253" width="160" height="52" as="geometry" />
        </mxCell>
        <mxCell id="WOj7lZCbLBOkg7lVIWbP-21" value="" style="endArrow=open;endSize=12;dashed=1;html=1;rounded=0;" edge="1" parent="1" source="WOj7lZCbLBOkg7lVIWbP-17" target="WOj7lZCbLBOkg7lVIWbP-7">
          <mxGeometry width="160" relative="1" as="geometry">
            <mxPoint x="-60" y="450" as="sourcePoint" />
            <mxPoint x="100" y="450" as="targetPoint" />
          </mxGeometry>
        </mxCell>
        <mxCell id="WOj7lZCbLBOkg7lVIWbP-22" value="" style="endArrow=open;endSize=12;dashed=1;html=1;rounded=0;" edge="1" parent="1" source="WOj7lZCbLBOkg7lVIWbP-17" target="WOj7lZCbLBOkg7lVIWbP-13">
          <mxGeometry width="160" relative="1" as="geometry">
            <mxPoint x="-60" y="450" as="sourcePoint" />
            <mxPoint x="100" y="450" as="targetPoint" />
          </mxGeometry>
        </mxCell>
        <mxCell id="WOj7lZCbLBOkg7lVIWbP-24" value="" style="endArrow=open;endSize=12;dashed=1;html=1;rounded=0;" edge="1" parent="1" source="WOj7lZCbLBOkg7lVIWbP-17" target="WOj7lZCbLBOkg7lVIWbP-1">
          <mxGeometry width="160" relative="1" as="geometry">
            <mxPoint x="-60" y="450" as="sourcePoint" />
            <mxPoint x="100" y="450" as="targetPoint" />
          </mxGeometry>
        </mxCell>
        <mxCell id="WOj7lZCbLBOkg7lVIWbP-25" value="ICommand" style="swimlane;fontStyle=3;align=center;verticalAlign=top;childLayout=stackLayout;horizontal=1;startSize=26;horizontalStack=0;resizeParent=1;resizeParentMax=0;resizeLast=0;collapsible=1;marginBottom=0;whiteSpace=wrap;html=1;" vertex="1" parent="1">
          <mxGeometry x="-240" y="560" width="160" height="52" as="geometry" />
        </mxCell>
        <mxCell id="WOj7lZCbLBOkg7lVIWbP-26" value="+Execute()" style="text;strokeColor=none;fillColor=none;align=left;verticalAlign=top;spacingLeft=4;spacingRight=4;overflow=hidden;rotatable=0;points=[[0,0.5],[1,0.5]];portConstraint=eastwest;whiteSpace=wrap;html=1;fontStyle=2" vertex="1" parent="WOj7lZCbLBOkg7lVIWbP-25">
          <mxGeometry y="26" width="160" height="26" as="geometry" />
        </mxCell>
        <mxCell id="WOj7lZCbLBOkg7lVIWbP-27" value="MacroCommand" style="swimlane;fontStyle=1;align=center;verticalAlign=top;childLayout=stackLayout;horizontal=1;startSize=26;horizontalStack=0;resizeParent=1;resizeParentMax=0;resizeLast=0;collapsible=1;marginBottom=0;whiteSpace=wrap;html=1;" vertex="1" parent="1">
          <mxGeometry x="-240" y="692" width="160" height="78" as="geometry" />
        </mxCell>
        <mxCell id="WOj7lZCbLBOkg7lVIWbP-36" value="+Execute()" style="text;strokeColor=none;fillColor=none;align=left;verticalAlign=top;spacingLeft=4;spacingRight=4;overflow=hidden;rotatable=0;points=[[0,0.5],[1,0.5]];portConstraint=eastwest;whiteSpace=wrap;html=1;fontStyle=0" vertex="1" parent="WOj7lZCbLBOkg7lVIWbP-27">
          <mxGeometry y="26" width="160" height="26" as="geometry" />
        </mxCell>
        <mxCell id="WOj7lZCbLBOkg7lVIWbP-29" value="-m_commands:ICommand[]" style="text;strokeColor=none;fillColor=none;align=left;verticalAlign=top;spacingLeft=4;spacingRight=4;overflow=hidden;rotatable=0;points=[[0,0.5],[1,0.5]];portConstraint=eastwest;whiteSpace=wrap;html=1;" vertex="1" parent="WOj7lZCbLBOkg7lVIWbP-27">
          <mxGeometry y="52" width="160" height="26" as="geometry" />
        </mxCell>
        <mxCell id="WOj7lZCbLBOkg7lVIWbP-30" value="" style="endArrow=block;dashed=1;endFill=0;endSize=12;html=1;rounded=0;" edge="1" parent="1" source="WOj7lZCbLBOkg7lVIWbP-27" target="WOj7lZCbLBOkg7lVIWbP-25">
          <mxGeometry width="160" relative="1" as="geometry">
            <mxPoint x="40" y="680" as="sourcePoint" />
            <mxPoint x="200" y="680" as="targetPoint" />
          </mxGeometry>
        </mxCell>
        <mxCell id="WOj7lZCbLBOkg7lVIWbP-31" value="" style="endArrow=diamondThin;endFill=1;endSize=24;html=1;rounded=0;edgeStyle=orthogonalEdgeStyle;" edge="1" parent="1" source="WOj7lZCbLBOkg7lVIWbP-25" target="WOj7lZCbLBOkg7lVIWbP-27">
          <mxGeometry width="160" relative="1" as="geometry">
            <mxPoint x="-230" y="820" as="sourcePoint" />
            <mxPoint x="-70" y="820" as="targetPoint" />
            <Array as="points">
              <mxPoint x="-320" y="586" />
              <mxPoint x="-320" y="718" />
            </Array>
          </mxGeometry>
        </mxCell>
        <mxCell id="WOj7lZCbLBOkg7lVIWbP-33" value="m_robot.Walk(m_direction);" style="shape=note;whiteSpace=wrap;html=1;backgroundOutline=1;darkOpacity=0.05;fillColor=#ffff88;strokeColor=#36393d;fontFamily=Consolas;size=15;align=left;spacingLeft=2;" vertex="1" parent="1">
          <mxGeometry x="240" y="319" width="190" height="60" as="geometry" />
        </mxCell>
        <mxCell id="WOj7lZCbLBOkg7lVIWbP-34" style="edgeStyle=orthogonalEdgeStyle;rounded=0;orthogonalLoop=1;jettySize=auto;html=1;entryX=0;entryY=0.5;entryDx=0;entryDy=0;entryPerimeter=0;" edge="1" parent="1" source="WOj7lZCbLBOkg7lVIWbP-32" target="WOj7lZCbLBOkg7lVIWbP-33">
          <mxGeometry relative="1" as="geometry" />
        </mxCell>
        <mxCell id="WOj7lZCbLBOkg7lVIWbP-35" value="for (cmd: m_commands)&lt;div&gt;&amp;nbsp; cmd.Execute();&lt;/div&gt;" style="shape=note;whiteSpace=wrap;html=1;backgroundOutline=1;darkOpacity=0.05;fillColor=#ffff88;strokeColor=#36393d;fontFamily=Consolas;size=15;align=left;spacingLeft=2;" vertex="1" parent="1">
          <mxGeometry x="20" y="701" width="190" height="60" as="geometry" />
        </mxCell>
        <mxCell id="WOj7lZCbLBOkg7lVIWbP-37" style="edgeStyle=orthogonalEdgeStyle;rounded=0;orthogonalLoop=1;jettySize=auto;html=1;" edge="1" parent="1" source="WOj7lZCbLBOkg7lVIWbP-36" target="WOj7lZCbLBOkg7lVIWbP-35">
          <mxGeometry relative="1" as="geometry" />
        </mxCell>
      </root>
    </mxGraphModel>
  </diagram>
</mxfile>
